HIERARCHY
ROOT Hips
{
	OFFSET	0.00	0.00	0.00
	CHANNELS 6 Xposition Yposition Zposition Zrotation Xrotation Yrotation
	JOINT LeftUpLeg
	{
		OFFSET	 0.126116	-0.065224	 0.014019
		CHANNELS 3 Zrotation Xrotation Yrotation
		JOINT LeftLeg
		{
			OFFSET	 0.000000	 0.569914	 0.000000
			CHANNELS 3 Zrotation Xrotation Yrotation
			JOINT LeftFoot
			{
				OFFSET	 0.000000	 0.544423	 0.000000
				CHANNELS 3 Zrotation Xrotation Yrotation
				JOINT LeftToeBase
				{
					OFFSET	 0.000000	 0.207117	 0.000000
					CHANNELS 3 Zrotation Xrotation Yrotation
					End Site
					{
						OFFSET	 0.000000	 0.207117	 0.000000
					}
				}
			}
		}
	}
	JOINT RightUpLeg
	{
		OFFSET	-0.124023	-0.065224	 0.008373
		CHANNELS 3 Zrotation Xrotation Yrotation
		JOINT RightLeg
		{
			OFFSET	 0.000000	 0.570047	 0.000000
			CHANNELS 3 Zrotation Xrotation Yrotation
			JOINT RightFoot
			{
				OFFSET	 0.000000	 0.544354	 0.000000
				CHANNELS 3 Zrotation Xrotation Yrotation
				JOINT RightToeBase
				{
					OFFSET	 0.000000	 0.207540	 0.000000
					CHANNELS 3 Zrotation Xrotation Yrotation
					End Site
					{
						OFFSET	 0.000000	 0.207540	 0.000000
					}
				}
			}
		}
	}
	JOINT Spine
	{
		OFFSET	 0.000184	 0.117403	 0.007763
		CHANNELS 3 Zrotation Xrotation Yrotation
		JOINT Spine1
		{
			OFFSET	 0.000000	 0.137269	 0.000000
			CHANNELS 3 Zrotation Xrotation Yrotation
			JOINT Spine2
			{
				OFFSET	 0.000000	 0.156879	 0.000000
				CHANNELS 3 Zrotation Xrotation Yrotation
				JOINT LeftShoulder
				{
					OFFSET	 0.080501	 0.160143	 0.002496
					CHANNELS 3 Zrotation Xrotation Yrotation
					JOINT LeftArm
					{
						OFFSET	 0.000000	 0.164363	 0.000000
						CHANNELS 3 Zrotation Xrotation Yrotation
						JOINT LeftForeArm
						{
							OFFSET	 0.000000	 0.364576	 0.000000
							CHANNELS 3 Zrotation Xrotation Yrotation
							JOINT LeftHand
							{
								OFFSET	 0.000000	 0.360812	 0.000000
								CHANNELS 3 Zrotation Xrotation Yrotation
								JOINT LeftHandIndex1
								{
									OFFSET	 0.000000	 0.086006	 0.000000
									CHANNELS 3 Zrotation Xrotation Yrotation
									JOINT LeftHandIndex2
									{
										OFFSET	 0.000000	 0.047237	 0.000000
										CHANNELS 3 Zrotation Xrotation Yrotation
										JOINT LeftHandIndex3
										{
											OFFSET	-0.004284	 0.038165	 0.000551
											CHANNELS 3 Zrotation Xrotation Yrotation
											End Site
											{
												OFFSET	-0.004284	 0.038165	 0.000551
											}
										}
									}
								}
							}
						}
					}
				}
				JOINT Neck
				{
					OFFSET	 0.000000	 0.176489	 0.000000
					CHANNELS 3 Zrotation Xrotation Yrotation
					JOINT Head
					{
						OFFSET	 0.000000	 0.077941	 0.001747
						CHANNELS 3 Zrotation Xrotation Yrotation
						End Site
						{
							OFFSET	 0.000000	 0.077941	 0.001747
						}
					}
				}
				JOINT RightShoulder
				{
					OFFSET	-0.080363	 0.159706	-0.000306
					CHANNELS 3 Zrotation Xrotation Yrotation
					JOINT RightArm
					{
						OFFSET	 0.000000	 0.164196	 0.000000
						CHANNELS 3 Zrotation Xrotation Yrotation
						JOINT RightForeArm
						{
							OFFSET	 0.000000	 0.365611	 0.000000
							CHANNELS 3 Zrotation Xrotation Yrotation
							JOINT RightHand
							{
								OFFSET	 0.000000	 0.360648	 0.000000
								CHANNELS 3 Zrotation Xrotation Yrotation
								JOINT RightHandIndex1
								{
									OFFSET	 0.000000	 0.069977	 0.000000
									CHANNELS 3 Zrotation Xrotation Yrotation
									JOINT RightHandIndex2
									{
										OFFSET	 0.000000	 0.052305	 0.000000
										CHANNELS 3 Zrotation Xrotation Yrotation
										JOINT RightHandIndex3
										{
											OFFSET	 0.009002	 0.042196	 0.000782
											CHANNELS 3 Zrotation Xrotation Yrotation
											End Site
											{
												OFFSET	 0.009002	 0.042196	 0.000782
											}
										}
									}
								}
							}
						}
					}
				}
			}
		}
	}
}
MOTION
Frames:    7
Frame Time: 0.03333334
-0.015291	 1.253741	 0.095328	 4.654872	 0.124862	 173.966300	-167.157600	 15.383340	-0.499982	 2.266670	-23.217830	 1.048938	 43.889500	 45.594160	-60.723480	 4.912823	 28.009660	-6.307255	-175.865800	 4.704906	 5.960735	-1.844043	-20.474400	 1.828857	-57.409230	 59.819240	 66.184350	-0.376973	 31.172240	 1.633515	 1.284799	 3.897776	-7.712237	 9.625706	 7.746985	-4.341196	-8.215104	-5.677775	 14.932360	-112.564100	 3.129247	 88.314280	 1.238388	 50.922410	 25.346580	 12.436430	-0.650382	 0.638793	-0.944344	-2.907356	-70.883050	-8.015422	 12.510890	-5.833668	-7.228748	 12.663740	 2.803974	 4.963066	-4.014628	-0.346955	 1.519217	-13.916310	 1.352579	-1.999086	 8.915416	-24.619750	 109.126700	 0.673784	-88.594740	-10.431180	 63.580390	 10.174710	-5.015218	-0.465364	 41.377090	-10.961940	 10.920350	-79.146370	 2.013326	 8.302673	 8.960633	 15.202890	 20.248320	-6.344011	-8.239867	-2.131385	 0.447455
-0.011150	 1.249965	 0.050774	 4.398422	-0.360359	 174.148200	-167.504900	 16.427440	-0.179789	 2.490768	-25.236960	 1.210794	 45.083660	 46.455270	-62.533160	 4.912828	 28.009690	-6.307231	-176.185200	 2.875321	 6.403058	-1.840202	-20.435370	 1.657807	-60.441750	 61.122310	 70.012280	-0.391517	 31.190020	 1.647939	 1.104646	 3.466449	-7.845013	 9.347569	 6.918235	-4.344041	-7.888375	-5.135490	 14.855220	-112.481400	 3.025737	 88.300120	 6.342436	 52.786980	 21.186420	 5.056530	-0.264228	 0.575963	 2.269556	-3.669344	-69.975230	-7.920147	 12.588970	-5.857297	-7.229182	 12.645610	 2.801500	 4.963066	-4.014628	-0.346955	 1.433861	-13.786660	 1.396264	-1.957283	 9.285238	-24.888800	 109.023400	 0.752761	-88.634770	-10.074210	 63.879150	 10.166870	-4.924057	-0.474079	 41.124220	-10.400990	 10.678130	-79.620470	 1.931361	 8.081543	 8.958546	 15.203220	 20.297380	-6.357435	-8.239867	-2.131385	 0.447455
-0.007453	 1.245006	 0.000766	 3.962403	-0.901229	 174.553200	-168.127200	 16.852360	 0.379175	 2.575219	-25.981020	 1.405681	 46.168690	 46.809900	-63.938920	 4.912841	 28.009760	-6.307175	-176.719600	 0.490374	 7.049224	-1.767257	-19.689070	 1.303189	-63.794140	 62.091380	 74.193900	-0.425506	 31.231510	 1.681646	 0.833059	 3.118449	-8.195221	 8.913333	 5.121958	-4.439978	-7.222293	-3.945309	 14.663900	-112.288400	 2.783902	 88.267590	 5.843828	 53.905480	 21.151120	 5.005627	-0.257247	 0.566951	 1.117267	-4.423912	-67.988800	-7.697456	 12.771110	-5.913016	-7.230194	 12.603310	 2.795724	 4.963066	-4.014628	-0.346955	 1.234345	-13.484190	 1.498947	-1.850838	 10.147400	-25.521660	 108.782300	 0.937419	-88.727650	-9.889875	 64.212810	 10.736930	-4.868549	-0.508251	 40.535290	-8.696998	 9.937550	-80.795170	 1.740098	 7.565192	 8.952435	 15.204050	 20.411910	-6.388797	-8.239867	-2.131385	 0.447455
-0.006673	 1.240240	-0.035825	 3.415446	-1.313557	 175.160100	-169.071900	 17.946720	 1.154579	 2.815876	-28.050020	 1.749014	 47.797940	 47.513320	-66.002690	 4.912859	 28.009860	-6.307086	-177.416200	-1.202798	 7.771984	-1.718325	-19.184350	 0.785189	-66.610980	 62.449620	 77.722880	-0.478469	 31.296010	 1.734173	 0.561672	 3.083519	-8.801828	 8.559291	 2.156098	-4.716401	-6.358883	-2.038587	 14.333270	-111.988600	 2.407480	 88.218640	 5.252575	 55.564300	 20.949820	 5.032917	-0.252039	 0.553456	-0.821029	-5.244771	-65.067970	-7.350307	 13.054070	-6.001229	-7.231780	 12.537500	 2.786740	 4.963066	-4.014628	-0.346955	 0.923311	-13.014280	 1.660602	-1.660561	 11.484220	-26.519520	 108.407800	 1.225491	-88.870630	-10.046970	 64.461670	 12.006910	-4.890770	-0.569128	 39.624680	-5.758811	 8.472262	-82.715550	 1.442807	 6.761790	 8.939487	 15.205460	 20.590090	-6.437636	-8.239867	-2.131385	 0.447455
-0.009652	 1.237861	-0.039228	 2.876372	-1.481818	 175.866700	-170.069300	 18.542600	 1.948256	 2.914515	-28.875790	 2.052662	 48.742190	 47.618470	-66.921100	 4.912881	 28.009980	-6.306982	-178.171400	-0.415152	 8.404265	-1.872854	-20.767190	 0.180234	-68.634000	 62.266640	 80.237290	-0.540622	 31.371500	 1.795814	 0.389052	 3.399630	-9.565313	 8.491088	-1.541191	-5.195610	-5.558534	 0.257221	 13.903000	-111.638000	 1.966354	 88.163830	 4.679737	 57.455340	 20.641540	 5.154506	-0.250702	 0.538174	-3.224966	-5.832885	-61.803090	-6.942708	 13.384750	-6.106896	-7.233650	 12.460430	 2.776220	 4.963066	-4.014628	-0.346955	 0.558079	-12.465080	 1.852847	-1.399480	 13.040710	-27.709090	 107.970100	 1.564002	-89.035680	-10.589850	 64.510010	 13.782280	-5.013606	-0.645718	 38.567250	-2.111663	 6.338304	-84.961410	 1.094987	 5.820989	 8.919023	 15.207320	 20.798730	-6.494905	-8.239867	-2.131385	 0.447455
-0.012487	 1.235779	-0.042497	 2.363344	-1.585969	 176.521200	-171.030500	 18.972380	 2.705088	 2.996126	-29.549180	 2.316092	 49.593370	 47.700470	-67.734570	 4.912902	 28.010100	-6.306886	-178.904500	 0.148076	 9.050181	-2.023173	-22.045840	-0.382009	-70.302190	 62.084450	 82.325390	-0.598553	 31.441640	 1.853270	 0.252812	 3.713894	-10.272950	 8.422361	-4.940968	-5.769506	-4.863002	 2.340694	 13.470570	-111.312300	 1.555793	 88.115290	 4.086903	 59.217260	 20.450710	 5.264876	-0.249353	 0.523924	-5.400784	-6.304231	-58.832470	-6.562576	 13.691620	-6.207467	-7.235401	 12.388760	 2.766438	 4.963066	-4.014628	-0.346955	 0.217407	-11.955420	 2.034484	-1.119574	 14.477350	-28.836330	 107.563900	 1.879946	-89.186900	-11.054260	 64.546970	 15.362170	-5.128966	-0.713456	 37.593310	 1.135318	 4.168612	-86.886170	 0.771696	 4.946174	 8.894876	 15.209260	 20.992760	-6.548243	-8.239867	-2.131385	 0.447455
-0.014240	 1.234581	-0.044384	 2.047594	-1.635248	 176.932400	-171.626100	 19.195370	 3.185427	 3.040108	-29.908330	 2.471962	 50.086500	 47.732940	-68.197140	 4.912915	 28.010170	-6.306826	-179.361500	 0.441306	 9.367606	-2.072136	-22.760160	-0.610070	-71.235540	 61.961110	 83.496040	-0.635102	 31.485800	 1.889521	 0.181516	 3.892885	-10.699380	 8.334864	-6.907804	-6.189546	-4.426248	 3.556805	 13.183090	-111.107500	 1.297116	 88.085930	 3.734415	 60.277670	 20.325640	 5.333197	-0.248520	 0.514898	-6.689443	-6.547936	-56.960790	-6.322633	 13.884540	-6.271948	-7.236510	 12.343620	 2.760276	 4.963066	-4.014628	-0.346955	 0.002340	-11.635000	 2.150288	-0.924940	 15.375790	-29.556850	 107.308500	 2.079473	-89.280990	-11.311770	 64.545960	 16.312900	-5.200881	-0.754373	 36.984810	 3.080569	 2.785503	-87.973840	 0.568125	 4.395339	 8.877145	 15.210570	 21.114960	-6.581874	-8.239867	-2.131385	 0.447455
